# xmcd
#
# Track frame offsets: 
#        182
#        18835
#        42615
#        65087
#        83925
#        108637
#        129042
#        157992
#        182287
#        206400
#        228610
#        250112
#
# Disc length: 3712 seconds
#
# Revision: 5
# Processed by: cddbd v1.5.2PL0 Copyright (c) Steve Scherf et al.
# Submitted via: ExactAudioCopy v1.0b3
#
DISCID=970e7e0c
DTITLE=Gerald Levert - Groove On
DYEAR=1994
DGENRE=R&B
TTITLE0=Groove On
TTITLE1=Rock Me (All Nite Long)
TTITLE2=Let The Juices Flow
TTITLE3=I'd Give Anything
TTITLE4=Answering Service
TTITLE5=Someone
TTITLE6=How Many Times
TTITLE7=Can't Help Myself
TTITLE8=Have Mercy
TTITLE9=Same Place, Same Time
TTITLE10=Nice and Wet
TTITLE11=Love Street (Bonus Track)
EXTD=
EXTT0=
EXTT1=
EXTT2=
EXTT3=
EXTT4=
EXTT5=
EXTT6=
EXTT7=
EXTT8=
EXTT9=
EXTT10=
EXTT11=
PLAYORDER=
